<svg xmlns="http://www.w3.org/2000/svg" id="logo-eko4u" width="120.653" height="55.208" viewBox="0 0 120.653 55.208">
  <g id="Group_4736" data-name="Group 4736">
    <path id="Path_7783" data-name="Path 7783" d="M216.977,4.978c4.906,4.8,4.978,11.92,4.978,22.625s-.073,17.824-4.978,22.626c-4.8,4.905-11.941,4.978-22.626,4.978s-17.823-.072-22.625-4.978c-4.906-4.8-4.979-11.926-4.979-22.626s.072-17.824,4.979-22.625C176.528.073,183.676,0,194.351,0s17.823.073,22.625,4.978" transform="translate(-101.302 0)" fill="#e7953a"/>
    <path id="Path_7784" data-name="Path 7784" d="M246.939,58.691v8.433a2.259,2.259,0,0,0,.7,1.716,3.309,3.309,0,0,0,2.149.506h3.395Q256,69.345,256,67.2V58.691h3.178v9.282q0,4.3-4.983,4.3h-5.454q-4.985,0-4.984-4.3V58.691Z" transform="translate(-148.089 -35.656)" fill="#fff"/>
    <path id="Path_7785" data-name="Path 7785" d="M201.957,47.373V57.684h-9.029l7.115-10.311H196.16l-6.769,9.772,0,.006a1.9,1.9,0,0,0,.894,2.884.941.941,0,0,0,.147.055c.041.012.086.02.128.03l.006,0a6.348,6.348,0,0,0,1.513.162h9.878l0,.361v.964h-.007l-.027,3.785h3.594V47.373Z" transform="translate(-114.844 -28.78)" fill="#fff"/>
    <path id="Path_7786" data-name="Path 7786" d="M17.307,63.4,3.616,67.442v.508A1.885,1.885,0,0,0,4.53,69.7a5.143,5.143,0,0,0,2.174.325H17.267v2.621H6.033a8.209,8.209,0,0,1-4.286-.873A3.543,3.543,0,0,1,0,68.478V61.246q0-3.88,5.708-3.88h6.277q5.322,0,5.322,4.124Zm-3.656-1.483v-.223q0-1.747-2.844-1.747H6.866q-3.291,0-3.291,1.971V64.9Z" transform="translate(0 -34.851)" fill="#222f3b"/>
    <path id="Path_7787" data-name="Path 7787" d="M57.3,64.75H53.725V44.375H57.3Zm12.859,0H65.751l-7.618-6.764a1.424,1.424,0,0,1-.63-1.016,1.755,1.755,0,0,1,.711-1.178l7.191-6.277h4.286L61.343,56.97Z" transform="translate(-32.639 -26.959)" fill="#222f3b"/>
    <path id="Path_7788" data-name="Path 7788" d="M118.017,68.864a3.285,3.285,0,0,1-1.747,2.986,7.04,7.04,0,0,1-3.738.792h-6.2a7.293,7.293,0,0,1-4.256-1.015,3.224,3.224,0,0,1-1.412-2.763V61.246a3.439,3.439,0,0,1,1.788-3.088,7.583,7.583,0,0,1,3.88-.792h6.2a7.009,7.009,0,0,1,3.778.792,3.384,3.384,0,0,1,1.706,3.088Zm-3.575-.711v-6.2a1.658,1.658,0,0,0-.833-1.544,3.662,3.662,0,0,0-2.072-.467h-4.246a4.016,4.016,0,0,0-2.174.467,1.641,1.641,0,0,0-.873,1.544v6.155a1.592,1.592,0,0,0,.873,1.483,3.564,3.564,0,0,0,1.909.427h4.754a3.26,3.26,0,0,0,1.828-.427,1.572,1.572,0,0,0,.833-1.442" transform="translate(-61.158 -34.851)" fill="#222f3b"/>
  </g>
</svg>