<svg xmlns="http://www.w3.org/2000/svg" width="108.578" height="56.107" viewBox="0 0 108.578 56.107"><defs><style>.a{fill:#0066b3;}.a,.b{fill-rule:evenodd;}.b{fill:#00aeef;}</style></defs><path class="a" d="M-9.69-12.35l-4.091-.014,1.008-10.211,4.072-.006ZM-20.33-28.682l-2.2,22.468,20.353-.01L.067-28.709Z" transform="translate(42.126 62.321)"/><path class="a" d="M-1.659-.024l-2.2,22.465,8.1.009L5.839,6.081l4.132,0L8.36,22.466l8.16-.033L18.738-.055Z" transform="translate(67.724 33.518)"/><path class="a" d="M-1.659-.024l-2.2,22.466,8.143-.011,4.758-6.124L4.891,16.29,5.9,6.083l4.111-.008L9.044,16.307,8.4,22.445l8.144-.012L18.776-.055Z" transform="translate(89.802 33.494)"/><path class="a" d="M-17.272,0l-8.191.013-5.122,8.234.808-8.23-8.21.014-2.163,22.38,8.081-.014.777-8.075,4.195-.006-.8,8.075,8.179-.011,1.415-14.252-4.175.027Z" transform="translate(81.885 33.587)"/><path class="b" d="M-9.692-12.352l-4.091-.016,1.008-10.21,4.071-.005ZM-20.334-28.684l-2.2,22.468,20.356-.01L.063-28.713Z" transform="translate(66.672 38.124)"/><g transform="translate(22.006)"><path class="b" d="M-17.3-7.137-25.5-7.1l-5.142,8.273,1.1-10.486c.4-4.37-2.814-7.282-8.851-7.272,0,0,1.131,1.315.9,4.64-.212,3.032-2.712,27.282-2.712,27.282l8.081-.014.779-8.072,4.193-.008-.808,8.074,8.179-.011,1.418-14.252-4.177.025Z" transform="translate(40.211 16.591)"/></g><g transform="translate(0 9.408)"><path class="b" d="M-6.6-12.34l1.009-10.209,4.071-.006-.972,10.2L6.629-22.576l.615-6.109-20.4.03-2.2,22.466L5.005-6.2l.615-6.17Z" transform="translate(15.351 28.685)"/></g></svg>